<svg width="25" height="25" viewBox="0 0 25 25" fill="none" xmlns="http://www.w3.org/2000/svg">
<path fill-rule="evenodd" clip-rule="evenodd" d="M12.7061 24.8962C19.3336 24.8962 24.7061 19.5236 24.7061 12.8962C24.7061 10.406 23.9476 8.093 22.6491 6.17557L12.705 6.89621L11.8848 24.8685C12.1562 24.8869 12.4301 24.8962 12.7061 24.8962Z" fill="#FCC934"/>
<path d="M17.8995 15.8946L12.7013 24.8956C6.07622 24.893 0.706352 19.5222 0.706146 12.8966C0.706146 9.9629 1.75958 7.2753 3.5079 5.19054L17.8995 15.8946Z" fill="#34A853"/>
<path fill-rule="evenodd" clip-rule="evenodd" d="M12.7045 6.89535L7.51053 15.8949L2.31296 6.89377C4.38816 3.30831 8.26547 0.896214 12.7062 0.896214C17.1475 0.896214 21.0253 3.30902 23.1003 6.89535H12.7045Z" fill="#EA4335"/>
<circle cx="12.7053" cy="12.8953" r="6" fill="white"/>
<circle cx="12.7053" cy="12.8962" r="4.75054" fill="#1A73E8"/>
</svg>
